<mxfile host="Electron" modified="2023-07-16T04:57:08.378Z" agent="Mozilla/5.0 (Windows NT 10.0; Win64; x64) AppleWebKit/537.36 (KHTML, like Gecko) draw.io/21.6.1 Chrome/112.0.5615.204 Electron/24.6.1 Safari/537.36" etag="AxiIFq45jLiAkGW-cV9E" version="21.6.1" type="device">
  <diagram name="Страница 1" id="aaElj5TTHpVtr-2Axxf1">
    <mxGraphModel dx="880" dy="572" grid="1" gridSize="10" guides="1" tooltips="1" connect="1" arrows="1" fold="1" page="1" pageScale="1" pageWidth="1169" pageHeight="827" math="0" shadow="0">
      <root>
        <mxCell id="0" />
        <mxCell id="1" parent="0" />
        <mxCell id="A2wrosvfIpYoP4NF63yS-3" value="" style="edgeStyle=orthogonalEdgeStyle;rounded=0;orthogonalLoop=1;jettySize=auto;html=1;" parent="1" source="A2wrosvfIpYoP4NF63yS-1" target="A2wrosvfIpYoP4NF63yS-2" edge="1">
          <mxGeometry relative="1" as="geometry" />
        </mxCell>
        <mxCell id="A2wrosvfIpYoP4NF63yS-1" value="Start" style="rounded=1;whiteSpace=wrap;html=1;" parent="1" vertex="1">
          <mxGeometry x="460" y="10" width="120" height="60" as="geometry" />
        </mxCell>
        <mxCell id="A2wrosvfIpYoP4NF63yS-5" value="" style="edgeStyle=orthogonalEdgeStyle;rounded=0;orthogonalLoop=1;jettySize=auto;html=1;" parent="1" source="A2wrosvfIpYoP4NF63yS-2" target="A2wrosvfIpYoP4NF63yS-4" edge="1">
          <mxGeometry relative="1" as="geometry" />
        </mxCell>
        <mxCell id="A2wrosvfIpYoP4NF63yS-2" value="array[size]" style="shape=parallelogram;perimeter=parallelogramPerimeter;whiteSpace=wrap;html=1;fixedSize=1;rounded=1;arcSize=0;" parent="1" vertex="1">
          <mxGeometry x="460" y="110" width="120" height="60" as="geometry" />
        </mxCell>
        <mxCell id="A2wrosvfIpYoP4NF63yS-8" value="" style="edgeStyle=orthogonalEdgeStyle;rounded=0;orthogonalLoop=1;jettySize=auto;html=1;" parent="1" source="A2wrosvfIpYoP4NF63yS-4" target="A2wrosvfIpYoP4NF63yS-7" edge="1">
          <mxGeometry relative="1" as="geometry" />
        </mxCell>
        <mxCell id="A2wrosvfIpYoP4NF63yS-4" value="arrayMax = array[0]&lt;br&gt;arrayMin = array[0]&lt;br&gt;max = 0&lt;br&gt;min = 0&lt;br&gt;index = 1&lt;br&gt;sum = 0" style="whiteSpace=wrap;html=1;rounded=1;arcSize=0;" parent="1" vertex="1">
          <mxGeometry x="460" y="210" width="120" height="90" as="geometry" />
        </mxCell>
        <mxCell id="A2wrosvfIpYoP4NF63yS-12" value="" style="edgeStyle=orthogonalEdgeStyle;rounded=0;orthogonalLoop=1;jettySize=auto;html=1;" parent="1" source="A2wrosvfIpYoP4NF63yS-7" target="A2wrosvfIpYoP4NF63yS-11" edge="1">
          <mxGeometry relative="1" as="geometry" />
        </mxCell>
        <mxCell id="A2wrosvfIpYoP4NF63yS-14" value="&lt;font style=&quot;font-size: 18px;&quot;&gt;True&lt;/font&gt;" style="edgeLabel;html=1;align=center;verticalAlign=middle;resizable=0;points=[];" parent="A2wrosvfIpYoP4NF63yS-12" vertex="1" connectable="0">
          <mxGeometry x="-0.12" relative="1" as="geometry">
            <mxPoint as="offset" />
          </mxGeometry>
        </mxCell>
        <mxCell id="qVoWmYFBY65BqWH6JhkC-3" value="" style="edgeStyle=orthogonalEdgeStyle;rounded=0;orthogonalLoop=1;jettySize=auto;html=1;" edge="1" parent="1" source="A2wrosvfIpYoP4NF63yS-7" target="qVoWmYFBY65BqWH6JhkC-2">
          <mxGeometry relative="1" as="geometry" />
        </mxCell>
        <mxCell id="qVoWmYFBY65BqWH6JhkC-6" value="&lt;font style=&quot;font-size: 18px;&quot;&gt;False&lt;/font&gt;" style="edgeLabel;html=1;align=center;verticalAlign=middle;resizable=0;points=[];" vertex="1" connectable="0" parent="qVoWmYFBY65BqWH6JhkC-3">
          <mxGeometry x="-0.0667" relative="1" as="geometry">
            <mxPoint as="offset" />
          </mxGeometry>
        </mxCell>
        <mxCell id="A2wrosvfIpYoP4NF63yS-7" value="index &amp;lt; size" style="rhombus;whiteSpace=wrap;html=1;rounded=1;arcSize=0;" parent="1" vertex="1">
          <mxGeometry x="480" y="325" width="80" height="80" as="geometry" />
        </mxCell>
        <mxCell id="A2wrosvfIpYoP4NF63yS-16" value="" style="edgeStyle=orthogonalEdgeStyle;rounded=0;orthogonalLoop=1;jettySize=auto;html=1;" parent="1" source="A2wrosvfIpYoP4NF63yS-9" target="A2wrosvfIpYoP4NF63yS-15" edge="1">
          <mxGeometry relative="1" as="geometry" />
        </mxCell>
        <mxCell id="A2wrosvfIpYoP4NF63yS-9" value="sum" style="shape=document;whiteSpace=wrap;html=1;boundedLbl=1;" parent="1" vertex="1">
          <mxGeometry x="1000" y="600" width="120" height="80" as="geometry" />
        </mxCell>
        <mxCell id="A2wrosvfIpYoP4NF63yS-18" value="" style="edgeStyle=orthogonalEdgeStyle;rounded=0;orthogonalLoop=1;jettySize=auto;html=1;" parent="1" source="A2wrosvfIpYoP4NF63yS-11" target="A2wrosvfIpYoP4NF63yS-17" edge="1">
          <mxGeometry relative="1" as="geometry" />
        </mxCell>
        <mxCell id="A2wrosvfIpYoP4NF63yS-19" value="&lt;font style=&quot;font-size: 18px;&quot;&gt;True&lt;/font&gt;" style="edgeLabel;html=1;align=center;verticalAlign=middle;resizable=0;points=[];" parent="A2wrosvfIpYoP4NF63yS-18" vertex="1" connectable="0">
          <mxGeometry x="-0.1273" y="-1" relative="1" as="geometry">
            <mxPoint as="offset" />
          </mxGeometry>
        </mxCell>
        <mxCell id="A2wrosvfIpYoP4NF63yS-21" value="" style="edgeStyle=orthogonalEdgeStyle;rounded=0;orthogonalLoop=1;jettySize=auto;html=1;" parent="1" source="A2wrosvfIpYoP4NF63yS-11" target="A2wrosvfIpYoP4NF63yS-20" edge="1">
          <mxGeometry relative="1" as="geometry" />
        </mxCell>
        <mxCell id="A2wrosvfIpYoP4NF63yS-22" value="&lt;font style=&quot;font-size: 18px;&quot;&gt;False&lt;/font&gt;" style="edgeLabel;html=1;align=center;verticalAlign=middle;resizable=0;points=[];" parent="A2wrosvfIpYoP4NF63yS-21" vertex="1" connectable="0">
          <mxGeometry x="-0.1077" y="-1" relative="1" as="geometry">
            <mxPoint as="offset" />
          </mxGeometry>
        </mxCell>
        <mxCell id="A2wrosvfIpYoP4NF63yS-11" value="arrayMax &amp;lt; array[index]" style="rhombus;whiteSpace=wrap;html=1;rounded=1;arcSize=0;" parent="1" vertex="1">
          <mxGeometry x="445" y="455" width="150" height="110" as="geometry" />
        </mxCell>
        <mxCell id="A2wrosvfIpYoP4NF63yS-15" value="Finish" style="rounded=1;whiteSpace=wrap;html=1;" parent="1" vertex="1">
          <mxGeometry x="1000" y="730" width="120" height="60" as="geometry" />
        </mxCell>
        <mxCell id="A2wrosvfIpYoP4NF63yS-29" style="edgeStyle=orthogonalEdgeStyle;rounded=0;orthogonalLoop=1;jettySize=auto;html=1;entryX=0.5;entryY=1;entryDx=0;entryDy=0;exitX=0.5;exitY=1;exitDx=0;exitDy=0;" parent="1" source="A2wrosvfIpYoP4NF63yS-17" target="A2wrosvfIpYoP4NF63yS-26" edge="1">
          <mxGeometry relative="1" as="geometry">
            <Array as="points">
              <mxPoint x="520" y="740" />
              <mxPoint x="110" y="740" />
            </Array>
          </mxGeometry>
        </mxCell>
        <mxCell id="A2wrosvfIpYoP4NF63yS-17" value="arrayMax = array[index]&lt;br&gt;max = index" style="whiteSpace=wrap;html=1;rounded=1;arcSize=0;" parent="1" vertex="1">
          <mxGeometry x="450" y="620" width="140" height="60" as="geometry" />
        </mxCell>
        <mxCell id="A2wrosvfIpYoP4NF63yS-24" value="" style="edgeStyle=orthogonalEdgeStyle;rounded=0;orthogonalLoop=1;jettySize=auto;html=1;" parent="1" source="A2wrosvfIpYoP4NF63yS-20" target="A2wrosvfIpYoP4NF63yS-23" edge="1">
          <mxGeometry relative="1" as="geometry" />
        </mxCell>
        <mxCell id="A2wrosvfIpYoP4NF63yS-25" value="&lt;font style=&quot;font-size: 18px;&quot;&gt;True&lt;/font&gt;" style="edgeLabel;html=1;align=center;verticalAlign=middle;resizable=0;points=[];" parent="A2wrosvfIpYoP4NF63yS-24" vertex="1" connectable="0">
          <mxGeometry x="-0.2" relative="1" as="geometry">
            <mxPoint as="offset" />
          </mxGeometry>
        </mxCell>
        <mxCell id="A2wrosvfIpYoP4NF63yS-27" style="edgeStyle=orthogonalEdgeStyle;rounded=0;orthogonalLoop=1;jettySize=auto;html=1;entryX=1;entryY=0.5;entryDx=0;entryDy=0;" parent="1" source="A2wrosvfIpYoP4NF63yS-20" target="A2wrosvfIpYoP4NF63yS-26" edge="1">
          <mxGeometry relative="1" as="geometry" />
        </mxCell>
        <mxCell id="A2wrosvfIpYoP4NF63yS-28" value="&lt;font style=&quot;font-size: 18px;&quot;&gt;False&lt;/font&gt;" style="edgeLabel;html=1;align=center;verticalAlign=middle;resizable=0;points=[];" parent="A2wrosvfIpYoP4NF63yS-27" vertex="1" connectable="0">
          <mxGeometry x="-0.1667" y="1" relative="1" as="geometry">
            <mxPoint as="offset" />
          </mxGeometry>
        </mxCell>
        <mxCell id="A2wrosvfIpYoP4NF63yS-20" value="arrayMin &amp;gt; array[index]" style="rhombus;whiteSpace=wrap;html=1;rounded=1;arcSize=0;" parent="1" vertex="1">
          <mxGeometry x="230" y="455" width="150" height="110" as="geometry" />
        </mxCell>
        <mxCell id="A2wrosvfIpYoP4NF63yS-30" style="edgeStyle=orthogonalEdgeStyle;rounded=0;orthogonalLoop=1;jettySize=auto;html=1;exitX=0.5;exitY=1;exitDx=0;exitDy=0;" parent="1" source="A2wrosvfIpYoP4NF63yS-23" edge="1">
          <mxGeometry relative="1" as="geometry">
            <mxPoint x="110" y="540" as="targetPoint" />
            <Array as="points">
              <mxPoint x="305" y="740" />
              <mxPoint x="111" y="740" />
            </Array>
          </mxGeometry>
        </mxCell>
        <mxCell id="A2wrosvfIpYoP4NF63yS-23" value="arrayMin = array[index]&lt;br&gt;min = index" style="whiteSpace=wrap;html=1;rounded=1;arcSize=0;" parent="1" vertex="1">
          <mxGeometry x="237.5" y="620" width="135" height="60" as="geometry" />
        </mxCell>
        <mxCell id="A2wrosvfIpYoP4NF63yS-31" style="edgeStyle=orthogonalEdgeStyle;rounded=0;orthogonalLoop=1;jettySize=auto;html=1;entryX=0;entryY=0.5;entryDx=0;entryDy=0;exitX=0.5;exitY=0;exitDx=0;exitDy=0;" parent="1" source="A2wrosvfIpYoP4NF63yS-26" target="A2wrosvfIpYoP4NF63yS-7" edge="1">
          <mxGeometry relative="1" as="geometry" />
        </mxCell>
        <mxCell id="A2wrosvfIpYoP4NF63yS-26" value="index += 1" style="rounded=0;whiteSpace=wrap;html=1;" parent="1" vertex="1">
          <mxGeometry x="50" y="480" width="120" height="60" as="geometry" />
        </mxCell>
        <mxCell id="qVoWmYFBY65BqWH6JhkC-1" value="3. **Задача повышенной сложности.&lt;br&gt;&amp;nbsp;Найти сумму элементов массива,&lt;br&gt;&amp;nbsp;лежащих между&lt;br/&gt;максимальным и&lt;br&gt;&amp;nbsp;минимальным по значению элементами" style="text;html=1;align=center;verticalAlign=middle;resizable=0;points=[];autosize=1;strokeColor=none;fillColor=none;" vertex="1" parent="1">
          <mxGeometry x="580" y="20" width="250" height="90" as="geometry" />
        </mxCell>
        <mxCell id="qVoWmYFBY65BqWH6JhkC-5" value="" style="edgeStyle=orthogonalEdgeStyle;rounded=0;orthogonalLoop=1;jettySize=auto;html=1;" edge="1" parent="1" source="qVoWmYFBY65BqWH6JhkC-2">
          <mxGeometry relative="1" as="geometry">
            <mxPoint x="690" y="480" as="targetPoint" />
          </mxGeometry>
        </mxCell>
        <mxCell id="qVoWmYFBY65BqWH6JhkC-7" value="&lt;font style=&quot;font-size: 18px;&quot;&gt;True&lt;/font&gt;" style="edgeLabel;html=1;align=center;verticalAlign=middle;resizable=0;points=[];" vertex="1" connectable="0" parent="qVoWmYFBY65BqWH6JhkC-5">
          <mxGeometry x="-0.2533" y="1" relative="1" as="geometry">
            <mxPoint as="offset" />
          </mxGeometry>
        </mxCell>
        <mxCell id="qVoWmYFBY65BqWH6JhkC-9" value="" style="edgeStyle=orthogonalEdgeStyle;rounded=0;orthogonalLoop=1;jettySize=auto;html=1;" edge="1" parent="1" source="qVoWmYFBY65BqWH6JhkC-2" target="qVoWmYFBY65BqWH6JhkC-8">
          <mxGeometry relative="1" as="geometry" />
        </mxCell>
        <mxCell id="qVoWmYFBY65BqWH6JhkC-13" value="&lt;font style=&quot;font-size: 18px;&quot;&gt;False&lt;/font&gt;" style="edgeLabel;html=1;align=center;verticalAlign=middle;resizable=0;points=[];" vertex="1" connectable="0" parent="qVoWmYFBY65BqWH6JhkC-9">
          <mxGeometry x="-0.2" y="-1" relative="1" as="geometry">
            <mxPoint as="offset" />
          </mxGeometry>
        </mxCell>
        <mxCell id="qVoWmYFBY65BqWH6JhkC-2" value="max &amp;lt; min" style="rhombus;whiteSpace=wrap;html=1;rounded=1;arcSize=0;" vertex="1" parent="1">
          <mxGeometry x="650" y="325" width="80" height="80" as="geometry" />
        </mxCell>
        <mxCell id="qVoWmYFBY65BqWH6JhkC-15" value="" style="edgeStyle=orthogonalEdgeStyle;rounded=0;orthogonalLoop=1;jettySize=auto;html=1;" edge="1" parent="1" source="qVoWmYFBY65BqWH6JhkC-8" target="qVoWmYFBY65BqWH6JhkC-14">
          <mxGeometry relative="1" as="geometry" />
        </mxCell>
        <mxCell id="qVoWmYFBY65BqWH6JhkC-8" value="index =&amp;nbsp; min + 1" style="whiteSpace=wrap;html=1;rounded=1;arcSize=0;" vertex="1" parent="1">
          <mxGeometry x="820" y="335" width="120" height="60" as="geometry" />
        </mxCell>
        <mxCell id="qVoWmYFBY65BqWH6JhkC-12" style="edgeStyle=orthogonalEdgeStyle;rounded=0;orthogonalLoop=1;jettySize=auto;html=1;entryX=0.5;entryY=1;entryDx=0;entryDy=0;" edge="1" parent="1" source="qVoWmYFBY65BqWH6JhkC-10" target="qVoWmYFBY65BqWH6JhkC-8">
          <mxGeometry relative="1" as="geometry" />
        </mxCell>
        <mxCell id="qVoWmYFBY65BqWH6JhkC-10" value="temp = max&lt;br&gt;max = min&lt;br&gt;min = temp" style="whiteSpace=wrap;html=1;rounded=1;arcSize=0;" vertex="1" parent="1">
          <mxGeometry x="630" y="480" width="120" height="60" as="geometry" />
        </mxCell>
        <mxCell id="qVoWmYFBY65BqWH6JhkC-17" value="" style="edgeStyle=orthogonalEdgeStyle;rounded=0;orthogonalLoop=1;jettySize=auto;html=1;" edge="1" parent="1" source="qVoWmYFBY65BqWH6JhkC-14" target="qVoWmYFBY65BqWH6JhkC-16">
          <mxGeometry relative="1" as="geometry" />
        </mxCell>
        <mxCell id="qVoWmYFBY65BqWH6JhkC-20" value="&lt;font style=&quot;font-size: 18px;&quot;&gt;True&lt;/font&gt;" style="edgeLabel;html=1;align=center;verticalAlign=middle;resizable=0;points=[];" vertex="1" connectable="0" parent="qVoWmYFBY65BqWH6JhkC-17">
          <mxGeometry x="-0.24" relative="1" as="geometry">
            <mxPoint as="offset" />
          </mxGeometry>
        </mxCell>
        <mxCell id="qVoWmYFBY65BqWH6JhkC-19" style="edgeStyle=orthogonalEdgeStyle;rounded=0;orthogonalLoop=1;jettySize=auto;html=1;entryX=0.5;entryY=0;entryDx=0;entryDy=0;exitX=1;exitY=0.5;exitDx=0;exitDy=0;" edge="1" parent="1" source="qVoWmYFBY65BqWH6JhkC-14" target="A2wrosvfIpYoP4NF63yS-9">
          <mxGeometry relative="1" as="geometry">
            <Array as="points">
              <mxPoint x="1160" y="365" />
              <mxPoint x="1160" y="570" />
              <mxPoint x="1060" y="570" />
            </Array>
          </mxGeometry>
        </mxCell>
        <mxCell id="qVoWmYFBY65BqWH6JhkC-21" value="&lt;font style=&quot;font-size: 18px;&quot;&gt;False&lt;/font&gt;" style="edgeLabel;html=1;align=center;verticalAlign=middle;resizable=0;points=[];" vertex="1" connectable="0" parent="qVoWmYFBY65BqWH6JhkC-19">
          <mxGeometry x="-0.8827" relative="1" as="geometry">
            <mxPoint x="7" as="offset" />
          </mxGeometry>
        </mxCell>
        <mxCell id="qVoWmYFBY65BqWH6JhkC-14" value="index &amp;lt; max" style="rhombus;whiteSpace=wrap;html=1;rounded=1;arcSize=0;" vertex="1" parent="1">
          <mxGeometry x="1020" y="325" width="80" height="80" as="geometry" />
        </mxCell>
        <mxCell id="qVoWmYFBY65BqWH6JhkC-18" style="edgeStyle=orthogonalEdgeStyle;rounded=0;orthogonalLoop=1;jettySize=auto;html=1;entryX=0;entryY=0.5;entryDx=0;entryDy=0;exitX=0;exitY=0.5;exitDx=0;exitDy=0;" edge="1" parent="1" source="qVoWmYFBY65BqWH6JhkC-16" target="qVoWmYFBY65BqWH6JhkC-14">
          <mxGeometry relative="1" as="geometry" />
        </mxCell>
        <mxCell id="qVoWmYFBY65BqWH6JhkC-16" value="sum += array[index]&lt;br&gt;index += 1" style="whiteSpace=wrap;html=1;rounded=1;arcSize=0;" vertex="1" parent="1">
          <mxGeometry x="1000" y="455" width="120" height="60" as="geometry" />
        </mxCell>
      </root>
    </mxGraphModel>
  </diagram>
</mxfile>
